<svg width="37" height="38" viewBox="0 0 37 38" fill="none" xmlns="http://www.w3.org/2000/svg">
<path d="M27.94 26.1181L36.0502 35.6236L33.2596 38L25.1712 28.5164C22.5551 30.2605 19.67 31.1325 16.516 31.1325C14.4085 31.1325 12.3918 30.7219 10.4661 29.9008C8.5403 29.0796 6.88338 27.975 5.49529 26.5869C4.1072 25.1989 3.0026 23.542 2.18148 21.6162C1.36035 19.6904 0.949764 17.6737 0.949707 15.5663C0.94965 13.4588 1.36024 11.4422 2.18148 9.51635C3.00271 7.59054 4.10732 5.93362 5.49529 4.54558C6.88327 3.15755 8.54019 2.05295 10.4661 1.23177C12.3919 0.410589 14.4086 0 16.516 0C18.6234 0 20.64 0.410589 22.5659 1.23177C24.4917 2.05295 26.1487 3.15755 27.5366 4.54558C28.9246 5.93362 30.0292 7.59054 30.8505 9.51635C31.6717 11.4422 32.0823 13.4588 32.0822 15.5663C32.0822 16.9034 31.9151 18.2115 31.5808 19.4905C31.2465 20.7695 30.7705 21.9613 30.1528 23.066C29.5351 24.1706 28.7975 25.188 27.9399 26.1181H27.94ZM16.5161 27.4697C18.1293 27.4697 19.67 27.1536 21.138 26.5213C22.6059 25.8891 23.8704 25.0425 24.9314 23.9815C25.9923 22.9205 26.839 21.6561 27.4712 20.1881C28.1035 18.7201 28.4196 17.1795 28.4196 15.5662C28.4196 13.9529 28.1035 12.4123 27.4712 10.9443C26.839 9.47629 25.9923 8.21179 24.9314 7.15076C23.8704 6.08974 22.6059 5.24312 21.138 4.61091C19.67 3.9787 18.1293 3.6626 16.5161 3.6626C14.9028 3.6626 13.3621 3.9787 11.8942 4.61091C10.4262 5.24312 9.16167 6.08977 8.10064 7.15085C7.03962 8.21193 6.193 9.47641 5.56079 10.9443C4.92858 12.4121 4.61248 13.9528 4.61248 15.5662C4.61248 17.1796 4.92858 18.7202 5.56079 20.1881C6.193 21.6559 7.03965 22.9204 8.10073 23.9815C9.16181 25.0426 10.4263 25.8892 11.8942 26.5213C13.362 27.1535 14.9027 27.4696 16.5161 27.4697Z" fill="black"/>
</svg>
