<svg width="39" height="30" viewBox="0 0 39 30" fill="none" xmlns="http://www.w3.org/2000/svg">
<path d="M2.875 3.125V24.5H36.125V3.125H2.875ZM2.875 0.75H36.125C36.7549 0.75 37.359 1.00022 37.8044 1.44562C38.2498 1.89102 38.5 2.49511 38.5 3.125V26.875C38.5 27.5049 38.2498 28.109 37.8044 28.5544C37.359 28.9998 36.7549 29.25 36.125 29.25H2.875C2.24511 29.25 1.64102 28.9998 1.19562 28.5544C0.750223 28.109 0.5 27.5049 0.5 26.875V3.125C0.5 2.49511 0.750223 1.89102 1.19562 1.44562C1.64102 1.00022 2.24511 0.75 2.875 0.75Z" fill="black"/>
</svg>
