<svg width="39" height="38" viewBox="0 0 39 38" fill="none" xmlns="http://www.w3.org/2000/svg">
<path d="M19.5 0C15.7422 0 12.0687 1.11433 8.94417 3.20208C5.81964 5.28982 3.38436 8.25722 1.9463 11.729C0.508232 15.2008 0.131969 19.0211 0.865088 22.7067C1.59821 26.3923 3.40778 29.7778 6.06498 32.435C8.72218 35.0922 12.1077 36.9018 15.7933 37.6349C19.4789 38.368 23.2992 37.9918 26.771 36.5537C30.2428 35.1156 33.2102 32.6804 35.2979 29.5558C37.3857 26.4313 38.5 22.7578 38.5 19C38.5 13.9609 36.4982 9.12816 32.935 5.56497C29.3718 2.00178 24.5391 0 19.5 0V0ZM19.5 28.5C17.6211 28.5 15.7844 27.9428 14.2221 26.899C12.6598 25.8551 11.4422 24.3714 10.7232 22.6355C10.0041 20.8996 9.81599 18.9895 10.1825 17.1466C10.5491 15.3038 11.4539 13.6111 12.7825 12.2825C14.1111 10.9539 15.8038 10.0491 17.6466 9.68254C19.4895 9.31598 21.3996 9.50411 23.1355 10.2231C24.8714 10.9422 26.3551 12.1598 27.399 13.7221C28.4428 15.2843 29 17.1211 29 19C29 21.5196 27.9991 23.9359 26.2175 25.7175C24.4359 27.4991 22.0196 28.5 19.5 28.5Z" fill="black"/>
</svg>
